<?xml version="1.0" standalone="no"?>
<!DOCTYPE svg PUBLIC "-//W3C//DTD SVG 20010904//EN"
 "http://www.w3.org/TR/2001/REC-SVG-20010904/DTD/svg10.dtd">
<svg version="1.0" xmlns="http://www.w3.org/2000/svg"
 width="1024.000000pt" height="1024.000000pt" viewBox="0 0 1024.000000 1024.000000"
 preserveAspectRatio="xMidYMid meet">

<g transform="translate(0.000000,1024.000000) scale(0.100000,-0.100000)"
fill="#000000" stroke="none">
<path d="M2380 9464 c-76 -21 -129 -54 -188 -119 -183 -200 -103 -511 158
-618 l55 -22 1950 -5 1950 -5 85 -24 c459 -128 822 -531 904 -1006 20 -113 20
-307 1 -416 -57 -328 -282 -634 -586 -798 -97 -52 -189 -85 -316 -110 -98 -20
-131 -21 -1220 -21 -764 0 -1138 -3 -1178 -11 -217 -40 -358 -235 -324 -449
25 -157 123 -275 277 -334 57 -21 62 -21 1217 -27 1258 -6 1186 -2 1365 -60
375 -120 697 -435 828 -811 102 -290 88 -616 -38 -894 -130 -288 -414 -535
-720 -628 -194 -58 -126 -56 -1835 -57 -863 -1 -1613 -5 -1665 -9 -169 -15
-371 -89 -508 -187 -192 -137 -324 -342 -373 -578 -17 -82 -19 -144 -19 -671
0 -337 4 -603 10 -633 23 -125 101 -231 208 -283 62 -31 73 -33 167 -33 80 1
111 5 157 23 66 27 148 97 182 156 55 95 57 109 56 661 0 290 4 536 10 570 11
68 32 101 81 130 34 20 57 20 1699 26 1743 6 1701 4 1925 51 364 74 719 270
981 540 286 295 452 620 526 1028 26 144 36 454 19 597 -55 468 -268 893 -612
1220 -76 73 -153 135 -228 182 -28 18 -51 36 -51 40 0 4 12 14 28 23 109 64
310 278 427 453 223 333 327 715 312 1149 -14 401 -122 744 -337 1068 -310
468 -754 768 -1305 881 -99 20 -126 21 -2060 23 -1709 3 -1967 1 -2015 -12z"/>
<path d="M3905 7919 c-38 -5 -124 -22 -190 -39 -484 -120 -936 -449 -1220
-888 -114 -177 -215 -431 -259 -654 -136 -678 52 -1337 518 -1816 289 -297
661 -505 1068 -596 249 -56 260 -56 1408 -56 749 0 1075 3 1112 11 194 42 325
190 336 380 11 195 -98 354 -293 426 -47 17 -115 18 -1175 24 -1116 5 -1126 5
-1223 27 -252 58 -427 152 -610 331 -240 234 -357 516 -357 861 0 404 174 746
493 971 135 96 283 158 474 201 97 22 112 22 1153 28 l1055 5 75 36 c201 96
288 317 204 518 -42 99 -142 184 -264 222 -59 18 -104 19 -1148 18 -598 -1
-1118 -5 -1157 -10z"/>
</g>
</svg>
